# xmcd
#
# Track frame offsets: 
#        150
#        1734
#        23404
#        51810
#        68673
#        87825
#        107797
#        123593
#        143577
#        168208
#        181675
#        204731
#        225733
#        244050
#        266366
#        290997
#
# Disc length: 3972 seconds
#
# Revision: 2
# Processed by: cddbd v1.5.2PL0 Copyright (c) Steve Scherf et al.
# Submitted via: ExactAudioCopyFreeDBPlugin 1.0
#
DISCID=d00f8210
DTITLE=Outlawz - Neva Surrenda
DYEAR=2002
DGENRE=Rap
TTITLE0=Intro
TTITLE1=Gatz Up
TTITLE2=What Side You On? (feat. The Hot Boyz)
TTITLE3=Move Somethin' (feat. Willie D of The Geto Boys)
TTITLE4=Everything Is Alright
TTITLE5=Playtime
TTITLE6=Stick 2 The Plan (feat. Big Syke)
TTITLE7=Not Real
TTITLE8=Us
TTITLE9=Black Diamond
TTITLE10=Why?
TTITLE11=Pleasure Of Sin (feat. Yukmouth and Big Syke)
TTITLE12=Desperation
TTITLE13=Blessings
TTITLE14=Lost And Turned Out
TTITLE15=Outro
EXTD=HSI Productions
EXTT0=
EXTT1=
EXTT2=
EXTT3=
EXTT4=
EXTT5=
EXTT6=
EXTT7=
EXTT8=
EXTT9=
EXTT10=
EXTT11=
EXTT12=
EXTT13=
EXTT14=
EXTT15=
PLAYORDER=
